<svg xmlns="http://www.w3.org/2000/svg" width="20.263" height="20.258" viewBox="0 0 20.263 20.258"><path d="M10.128,7.173a5.194,5.194,0,1,0,5.194,5.194A5.186,5.186,0,0,0,10.128,7.173Zm0,8.571a3.377,3.377,0,1,1,3.377-3.377A3.383,3.383,0,0,1,10.128,15.743ZM16.746,6.96a1.211,1.211,0,1,1-1.211-1.211A1.209,1.209,0,0,1,16.746,6.96Zm3.44,1.23A6,6,0,0,0,18.55,3.945a6.035,6.035,0,0,0-4.245-1.636c-1.673-.095-6.686-.095-8.358,0A6.026,6.026,0,0,0,1.7,3.941,6.015,6.015,0,0,0,.066,8.185c-.095,1.673-.095,6.686,0,8.358A6,6,0,0,0,1.7,20.788a6.042,6.042,0,0,0,4.245,1.636c1.673.095,6.686.095,8.358,0a6,6,0,0,0,4.245-1.636,6.035,6.035,0,0,0,1.636-4.245c.095-1.673.095-6.681,0-8.354ZM18.025,18.338A3.419,3.419,0,0,1,16.1,20.264c-1.334.529-4.5.407-5.971.407s-4.642.118-5.971-.407a3.419,3.419,0,0,1-1.926-1.926C1.7,17,1.824,13.84,1.824,12.367S1.707,7.724,2.231,6.4A3.419,3.419,0,0,1,4.157,4.47c1.334-.529,4.5-.407,5.971-.407s4.642-.118,5.971.407A3.419,3.419,0,0,1,18.025,6.4c.529,1.334.407,4.5.407,5.971S18.554,17.009,18.025,18.338Z" transform="translate(0.005 -2.238)" fill="#fff"/></svg>