<svg xmlns="http://www.w3.org/2000/svg" width="28.802" height="20.251" viewBox="0 0 28.802 20.251"><path d="M29.25,7.669A3.619,3.619,0,0,0,26.7,5.106C24.458,4.5,15.451,4.5,15.451,4.5S6.444,4.5,4.2,5.106A3.619,3.619,0,0,0,1.652,7.669a37.964,37.964,0,0,0-.6,6.977,37.964,37.964,0,0,0,.6,6.977A3.565,3.565,0,0,0,4.2,24.146c2.246.606,11.253.606,11.253.606s9.007,0,11.253-.606a3.565,3.565,0,0,0,2.546-2.522,37.965,37.965,0,0,0,.6-6.977,37.965,37.965,0,0,0-.6-6.977ZM12.505,18.929V10.364l7.528,4.283-7.528,4.282Z" transform="translate(-1.05 -4.5)" fill="#fff"/></svg>